{
	"asset":{
		"generator":"Khronos glTF Blender I/O v4.1.62",
		"version":"2.0"
	},
	"scene":0,
	"scenes":[
		{
			"name":"Scene",
			"nodes":[
				37
			]
		}
	],
	"nodes":[
		{
			"name":"leg_front_left_toe",
			"rotation":[
				-0.5143088698387146,
				0.014288046397268772,
				0.014288047328591347,
				0.8573669791221619
			],
			"scale":[
				1,
				0.9999999403953552,
				1
			],
			"translation":[
				6.854534149169922e-07,
				5.100250244140625,
				8.344650268554688e-07
			]
		},
		{
			"children":[
				0
			],
			"name":"leg_front_left_ankle",
			"rotation":[
				-0.16746565699577332,
				-0.10385331511497498,
				-0.022485170513391495,
				0.9801347851753235
			],
			"scale":[
				0.9999999403953552,
				1,
				0.9999999403953552
			],
			"translation":[
				-3.8743019104003906e-07,
				15.275493621826172,
				4.76837158203125e-07
			]
		},
		{
			"children":[
				1
			],
			"name":"leg_front_left_bot0",
			"rotation":[
				2.1563263175039538e-08,
				-0.9933755993843079,
				-0.07578619569540024,
				0.08637937158346176
			],
			"scale":[
				1,
				0.9999998807907104,
				0.9999999403953552
			],
			"translation":[
				-3.643284571808181e-07,
				8.300018310546875,
				1.3900353224016726e-07
			]
		},
		{
			"children":[
				2
			],
			"name":"leg_front_left_top1",
			"rotation":[
				-2.8768903348463937e-07,
				0.27742835879325867,
				-0.38431093096733093,
				0.8805332183837891
			],
			"scale":[
				0.9999999403953552,
				0.9999999403953552,
				0.9999999403953552
			],
			"translation":[
				-2.9802322387695312e-08,
				10.286108016967773,
				5.960464477539062e-07
			]
		},
		{
			"children":[
				3
			],
			"name":"leg_front_left_top0",
			"rotation":[
				-0.46141940355300903,
				-0.5771336555480957,
				-0.6650227308273315,
				0.1084141656756401
			],
			"translation":[
				0.33839941024780273,
				6.521961212158203,
				1.3238201141357422
			]
		},
		{
			"name":"head0",
			"rotation":[
				0.6667992472648621,
				-0.004287791438400745,
				0.012868864461779594,
				0.7451139688491821
			],
			"scale":[
				1,
				0.9999998807907104,
				0.9999999403953552
			],
			"translation":[
				1.4901161193847656e-07,
				7.819422245025635,
				3.5744160413742065e-06
			]
		},
		{
			"children":[
				5
			],
			"name":"neck1",
			"rotation":[
				0.17197613418102264,
				0.0047026085667312145,
				0.015261311084032059,
				0.9849717020988464
			],
			"scale":[
				0.9999998807907104,
				0.9999999403953552,
				0.9999998211860657
			],
			"translation":[
				5.494803190231323e-08,
				14.691681861877441,
				3.0407682061195374e-07
			]
		},
		{
			"children":[
				6
			],
			"name":"neck0",
			"rotation":[
				-0.4213378429412842,
				-0.0011604470200836658,
				-0.0013372586108744144,
				0.9069020748138428
			],
			"scale":[
				1,
				0.9999999403953552,
				1
			],
			"translation":[
				1.2994252074349788e-06,
				6.817930698394775,
				-1.4342136864797794e-06
			]
		},
		{
			"name":"leg_front_right_toe",
			"rotation":[
				-0.5143069624900818,
				-0.014290581457316875,
				-0.01429013442248106,
				0.8573680520057678
			],
			"scale":[
				0.9999999403953552,
				1,
				0.9999999403953552
			],
			"translation":[
				9.238719940185547e-07,
				5.100252151489258,
				-1.3709068298339844e-06
			]
		},
		{
			"children":[
				8
			],
			"name":"leg_front_right_ankle",
			"rotation":[
				-0.16746635735034943,
				0.10385861992835999,
				0.022485973313450813,
				0.9801340699195862
			],
			"scale":[
				0.9999999403953552,
				1,
				1
			],
			"translation":[
				-1.043081283569336e-06,
				15.275483131408691,
				2.384185791015625e-07
			]
		},
		{
			"children":[
				9
			],
			"name":"leg_front_right_bot0",
			"rotation":[
				1.57036836867519e-08,
				0.9933754205703735,
				0.0757860466837883,
				0.08638150990009308
			],
			"scale":[
				1,
				1.000000238418579,
				1.0000001192092896
			],
			"translation":[
				5.137184189152322e-07,
				8.30001163482666,
				3.8933276869101974e-07
			]
		},
		{
			"children":[
				10
			],
			"name":"leg_front_right_top1",
			"rotation":[
				6.062218460556323e-08,
				-0.16912145912647247,
				0.48089420795440674,
				0.8603131175041199
			],
			"scale":[
				0.9999999403953552,
				1,
				1
			],
			"translation":[
				4.76837158203125e-07,
				13.640019416809082,
				3.5762786865234375e-07
			]
		},
		{
			"children":[
				11
			],
			"name":"leg_front_right_top0",
			"rotation":[
				-0.4429246187210083,
				0.5638808012008667,
				0.6497516632080078,
				0.25234711170196533
			],
			"scale":[
				0.9999997615814209,
				0.9999997019767761,
				0.9999998211860657
			],
			"translation":[
				-0.4137188196182251,
				6.558764457702637,
				1.2446484565734863
			]
		},
		{
			"children":[
				4,
				7,
				12
			],
			"name":"body_top1",
			"rotation":[
				-0.11648804694414139,
				-0.024912899360060692,
				-0.028706809505820274,
				0.992464542388916
			],
			"scale":[
				0.9999998807907104,
				0.9999999403953552,
				0.9999998807907104
			],
			"translation":[
				6.51925802230835e-08,
				6.839017868041992,
				-1.0803341865539551e-07
			]
		},
		{
			"children":[
				13
			],
			"name":"body_top0",
			"rotation":[
				0.07690894603729248,
				0.060679081827402115,
				0.05927484482526779,
				0.9934231638908386
			],
			"scale":[
				1,
				0.9999999403953552,
				0.9999998211860657
			],
			"translation":[
				3.2782554626464844e-07,
				6.324705123901367,
				1.6838312149047852e-06
			]
		},
		{
			"name":"tail6",
			"rotation":[
				0.0026470297016203403,
				0.004613430239260197,
				0.007901899516582489,
				0.9999546408653259
			],
			"translation":[
				-3.5762786865234375e-07,
				1.6365010738372803,
				-1.430511474609375e-06
			]
		},
		{
			"children":[
				15
			],
			"name":"tail5",
			"rotation":[
				3.878260031342506e-06,
				5.178153514862061e-07,
				1.3438984751701355e-06,
				1
			],
			"scale":[
				1,
				1.0000001192092896,
				1
			],
			"translation":[
				-1.0728836059570312e-06,
				1.8080668449401855,
				3.039836883544922e-06
			]
		},
		{
			"children":[
				16
			],
			"name":"tail4",
			"rotation":[
				0.25581830739974976,
				-0.002630973467603326,
				0.02924109622836113,
				0.9662789702415466
			],
			"scale":[
				0.9999999403953552,
				0.9999998807907104,
				1
			],
			"translation":[
				1.1920928955078125e-07,
				2.2272348403930664,
				3.7401914596557617e-06
			]
		},
		{
			"children":[
				17
			],
			"name":"tail3",
			"rotation":[
				-1.8659047782421112e-06,
				7.636845111846924e-08,
				-6.868503987789154e-08,
				1
			],
			"translation":[
				-6.556510925292969e-07,
				2.086127519607544,
				1.6391277313232422e-06
			]
		},
		{
			"children":[
				18
			],
			"name":"tail2",
			"rotation":[
				0.16853094100952148,
				0.02246849238872528,
				0.1007595881819725,
				0.9802754521369934
			],
			"scale":[
				1.0000001192092896,
				1,
				1
			],
			"translation":[
				-2.980232238769531e-07,
				5.75457763671875,
				1.0728836059570312e-06
			]
		},
		{
			"children":[
				19
			],
			"name":"tail1",
			"rotation":[
				0.02765565738081932,
				0.0030217731837183237,
				0.010963531211018562,
				0.999552845954895
			],
			"scale":[
				0.9999999403953552,
				0.9999999403953552,
				0.9999998211860657
			],
			"translation":[
				-2.384185791015625e-07,
				1.387439250946045,
				-1.519918441772461e-06
			]
		},
		{
			"children":[
				20
			],
			"name":"tail0",
			"rotation":[
				0.5070208311080933,
				0.061892569065093994,
				0.2720992863178253,
				0.8155128359794617
			],
			"scale":[
				1.0000001192092896,
				1,
				1.0000001192092896
			],
			"translation":[
				0,
				10.261249542236328,
				-4.76837158203125e-07
			]
		},
		{
			"children":[
				21
			],
			"name":"pelvis",
			"rotation":[
				0.10184755176305771,
				0.18815651535987854,
				-0.28384703397750854,
				0.9346951842308044
			],
			"scale":[
				0.9999999403953552,
				0.9999998807907104,
				1
			],
			"translation":[
				-3.725290298461914e-07,
				10.868311882019043,
				3.0174851417541504e-06
			]
		},
		{
			"name":"leg_hind_left_toe",
			"rotation":[
				-0.6195241808891296,
				-0.09091132879257202,
				-0.09091079980134964,
				0.7743772864341736
			],
			"scale":[
				0.9999999403953552,
				0.9999999403953552,
				0.9999999403953552
			],
			"translation":[
				-5.960464477539063e-08,
				5.327754020690918,
				-2.384185791015625e-07
			]
		},
		{
			"children":[
				23
			],
			"name":"leg_hind_left_ankle",
			"rotation":[
				-0.3285103440284729,
				0.18605057895183563,
				-0.02218211069703102,
				0.925728976726532
			],
			"scale":[
				1.0000001192092896,
				1,
				1
			],
			"translation":[
				1.4901161193847656e-06,
				17.918806076049805,
				4.291534423828125e-06
			]
		},
		{
			"children":[
				24
			],
			"name":"leg_hind_left_bot0",
			"rotation":[
				-2.452048590839695e-07,
				0.9723240733146667,
				-0.22527869045734406,
				0.06193103268742561
			],
			"scale":[
				1,
				0.9999998807907104,
				0.9999998807907104
			],
			"translation":[
				-8.970559974841308e-07,
				6.600009918212891,
				1.939255525940098e-06
			]
		},
		{
			"children":[
				25
			],
			"name":"leg_hind_left_top1",
			"rotation":[
				1.1270375921412779e-07,
				-0.39162477850914,
				-0.3287290036678314,
				0.8593994379043579
			],
			"scale":[
				1.0000001192092896,
				1,
				1.0000001192092896
			],
			"translation":[
				-4.76837158203125e-07,
				13.481843948364258,
				1.1920928955078125e-06
			]
		},
		{
			"children":[
				26
			],
			"name":"leg_hind_left_top0",
			"rotation":[
				0.5081395506858826,
				0.47377902269363403,
				-0.7173961400985718,
				0.05167599394917488
			],
			"scale":[
				0.9999999403953552,
				1,
				1
			],
			"translation":[
				0.2680356502532959,
				10.209277153015137,
				-1.2360024452209473
			]
		},
		{
			"name":"leg_hind_right_toe",
			"rotation":[
				-0.6195239424705505,
				0.09091103821992874,
				0.09091009199619293,
				0.7743775844573975
			],
			"scale":[
				1,
				1.0000001192092896,
				1
			],
			"translation":[
				9.5367431640625e-07,
				5.327763557434082,
				-3.814697265625e-06
			]
		},
		{
			"children":[
				28
			],
			"name":"leg_hind_right_ankle",
			"rotation":[
				-0.32851022481918335,
				-0.18605025112628937,
				0.022181855514645576,
				0.9257290959358215
			],
			"scale":[
				1,
				1,
				0.9999998807907104
			],
			"translation":[
				-7.152557373046875e-07,
				17.918798446655273,
				5.960464477539062e-07
			]
		},
		{
			"children":[
				29
			],
			"name":"leg_hind_right_bot0",
			"rotation":[
				0.15929578244686127,
				0.7313292026519775,
				-0.1592956781387329,
				0.6437447667121887
			],
			"scale":[
				1,
				1.0000001192092896,
				1
			],
			"translation":[
				-1.0258236216031946e-06,
				6.600011348724365,
				1.3277008292789105e-06
			]
		},
		{
			"children":[
				30
			],
			"name":"leg_hind_right_top1",
			"rotation":[
				-0.2922217547893524,
				0.8017668724060059,
				0.2922218143939972,
				0.43172064423561096
			],
			"scale":[
				0.9999998807907104,
				1.000000238418579,
				1.0000001192092896
			],
			"translation":[
				1.1920928955078125e-06,
				16.145776748657227,
				1.9073486328125e-06
			]
		},
		{
			"children":[
				31
			],
			"name":"leg_hind_right_top0",
			"rotation":[
				0.44677332043647766,
				-0.48471248149871826,
				0.723699688911438,
				0.20422086119651794
			],
			"scale":[
				1,
				1.0000001192092896,
				1
			],
			"translation":[
				-0.3741337060928345,
				10.25879192352295,
				-1.1819201707839966
			]
		},
		{
			"children":[
				22,
				27,
				32
			],
			"name":"body_bot",
			"rotation":[
				-0.9727599024772644,
				-0.021991990506649017,
				0.043366480618715286,
				0.2266579121351242
			],
			"scale":[
				0.9999999403953552,
				1,
				1.000000238418579
			],
			"translation":[
				-0.014470726251602173,
				0.9636171460151672,
				0.2000010460615158
			]
		},
		{
			"children":[
				14,
				33
			],
			"name":"body",
			"rotation":[
				0.684145450592041,
				-2.252066622077109e-07,
				-0.04695457965135574,
				0.7278326749801636
			],
			"scale":[
				0.9999999403953552,
				0.9999999403953552,
				0.9999999403953552
			],
			"translation":[
				1.0191041231155396,
				36.810482025146484,
				-12.566597938537598
			]
		},
		{
			"children":[
				34
			],
			"name":"root",
			"rotation":[
				-0.7071031928062439,
				0,
				0,
				0.7071103453636169
			],
			"translation":[
				1.0986031293869019,
				-0.1824636310338974,
				33.70673751831055
			]
		},
		{
			"mesh":0,
			"name":"model",
			"skin":0
		},
		{
			"children":[
				36,
				35
			],
			"name":"rig",
			"rotation":[
				0.7071068286895752,
				0,
				0,
				0.7071068286895752
			]
		}
	],
	"animations":[
		{
			"channels":[
				{
					"sampler":0,
					"target":{
						"node":35,
						"path":"translation"
					}
				},
				{
					"sampler":1,
					"target":{
						"node":35,
						"path":"rotation"
					}
				},
				{
					"sampler":2,
					"target":{
						"node":35,
						"path":"scale"
					}
				},
				{
					"sampler":3,
					"target":{
						"node":34,
						"path":"translation"
					}
				},
				{
					"sampler":4,
					"target":{
						"node":34,
						"path":"rotation"
					}
				},
				{
					"sampler":5,
					"target":{
						"node":34,
						"path":"scale"
					}
				},
				{
					"sampler":6,
					"target":{
						"node":14,
						"path":"translation"
					}
				},
				{
					"sampler":7,
					"target":{
						"node":14,
						"path":"rotation"
					}
				},
				{
					"sampler":8,
					"target":{
						"node":14,
						"path":"scale"
					}
				},
				{
					"sampler":9,
					"target":{
						"node":13,
						"path":"translation"
					}
				},
				{
					"sampler":10,
					"target":{
						"node":13,
						"path":"rotation"
					}
				},
				{
					"sampler":11,
					"target":{
						"node":13,
						"path":"scale"
					}
				},
				{
					"sampler":12,
					"target":{
						"node":4,
						"path":"translation"
					}
				},
				{
					"sampler":13,
					"target":{
						"node":4,
						"path":"rotation"
					}
				},
				{
					"sampler":14,
					"target":{
						"node":4,
						"path":"scale"
					}
				},
				{
					"sampler":15,
					"target":{
						"node":3,
						"path":"translation"
					}
				},
				{
					"sampler":16,
					"target":{
						"node":3,
						"path":"rotation"
					}
				},
				{
					"sampler":17,
					"target":{
						"node":3,
						"path":"scale"
					}
				},
				{
					"sampler":18,
					"target":{
						"node":2,
						"path":"translation"
					}
				},
				{
					"sampler":19,
					"target":{
						"node":2,
						"path":"rotation"
					}
				},
				{
					"sampler":20,
					"target":{
						"node":2,
						"path":"scale"
					}
				},
				{
					"sampler":21,
					"target":{
						"node":1,
						"path":"translation"
					}
				},
				{
					"sampler":22,
					"target":{
						"node":1,
						"path":"rotation"
					}
				},
				{
					"sampler":23,
					"target":{
						"node":1,
						"path":"scale"
					}
				},
				{
					"sampler":24,
					"target":{
						"node":0,
						"path":"translation"
					}
				},
				{
					"sampler":25,
					"target":{
						"node":0,
						"path":"rotation"
					}
				},
				{
					"sampler":26,
					"target":{
						"node":0,
						"path":"scale"
					}
				},
				{
					"sampler":27,
					"target":{
						"node":7,
						"path":"translation"
					}
				},
				{
					"sampler":28,
					"target":{
						"node":7,
						"path":"rotation"
					}
				},
				{
					"sampler":29,
					"target":{
						"node":7,
						"path":"scale"
					}
				},
				{
					"sampler":30,
					"target":{
						"node":6,
						"path":"translation"
					}
				},
				{
					"sampler":31,
					"target":{
						"node":6,
						"path":"rotation"
					}
				},
				{
					"sampler":32,
					"target":{
						"node":6,
						"path":"scale"
					}
				},
				{
					"sampler":33,
					"target":{
						"node":5,
						"path":"translation"
					}
				},
				{
					"sampler":34,
					"target":{
						"node":5,
						"path":"rotation"
					}
				},
				{
					"sampler":35,
					"target":{
						"node":5,
						"path":"scale"
					}
				},
				{
					"sampler":36,
					"target":{
						"node":12,
						"path":"translation"
					}
				},
				{
					"sampler":37,
					"target":{
						"node":12,
						"path":"rotation"
					}
				},
				{
					"sampler":38,
					"target":{
						"node":12,
						"path":"scale"
					}
				},
				{
					"sampler":39,
					"target":{
						"node":11,
						"path":"translation"
					}
				},
				{
					"sampler":40,
					"target":{
						"node":11,
						"path":"rotation"
					}
				},
				{
					"sampler":41,
					"target":{
						"node":11,
						"path":"scale"
					}
				},
				{
					"sampler":42,
					"target":{
						"node":10,
						"path":"translation"
					}
				},
				{
					"sampler":43,
					"target":{
						"node":10,
						"path":"rotation"
					}
				},
				{
					"sampler":44,
					"target":{
						"node":10,
						"path":"scale"
					}
				},
				{
					"sampler":45,
					"target":{
						"node":9,
						"path":"translation"
					}
				},
				{
					"sampler":46,
					"target":{
						"node":9,
						"path":"rotation"
					}
				},
				{
					"sampler":47,
					"target":{
						"node":9,
						"path":"scale"
					}
				},
				{
					"sampler":48,
					"target":{
						"node":8,
						"path":"translation"
					}
				},
				{
					"sampler":49,
					"target":{
						"node":8,
						"path":"rotation"
					}
				},
				{
					"sampler":50,
					"target":{
						"node":8,
						"path":"scale"
					}
				},
				{
					"sampler":51,
					"target":{
						"node":33,
						"path":"translation"
					}
				},
				{
					"sampler":52,
					"target":{
						"node":33,
						"path":"rotation"
					}
				},
				{
					"sampler":53,
					"target":{
						"node":33,
						"path":"scale"
					}
				},
				{
					"sampler":54,
					"target":{
						"node":22,
						"path":"translation"
					}
				},
				{
					"sampler":55,
					"target":{
						"node":22,
						"path":"rotation"
					}
				},
				{
					"sampler":56,
					"target":{
						"node":22,
						"path":"scale"
					}
				},
				{
					"sampler":57,
					"target":{
						"node":21,
						"path":"translation"
					}
				},
				{
					"sampler":58,
					"target":{
						"node":21,
						"path":"rotation"
					}
				},
				{
					"sampler":59,
					"target":{
						"node":21,
						"path":"scale"
					}
				},
				{
					"sampler":60,
					"target":{
						"node":20,
						"path":"translation"
					}
				},
				{
					"sampler":61,
					"target":{
						"node":20,
						"path":"rotation"
					}
				},
				{
					"sampler":62,
					"target":{
						"node":20,
						"path":"scale"
					}
				},
				{
					"sampler":63,
					"target":{
						"node":19,
						"path":"translation"
					}
				},
				{
					"sampler":64,
					"target":{
						"node":19,
						"path":"rotation"
					}
				},
				{
					"sampler":65,
					"target":{
						"node":19,
						"path":"scale"
					}
				},
				{
					"sampler":66,
					"target":{
						"node":18,
						"path":"translation"
					}
				},
				{
					"sampler":67,
					"target":{
						"node":18,
						"path":"rotation"
					}
				},
				{
					"sampler":68,
					"target":{
						"node":18,
						"path":"scale"
					}
				},
				{
					"sampler":69,
					"target":{
						"node":17,
						"path":"translation"
					}
				},
				{
					"sampler":70,
					"target":{
						"node":17,
						"path":"rotation"
					}
				},
				{
					"sampler":71,
					"target":{
						"node":17,
						"path":"scale"
					}
				},
				{
					"sampler":72,
					"target":{
						"node":16,
						"path":"translation"
					}
				},
				{
					"sampler":73,
					"target":{
						"node":16,
						"path":"rotation"
					}
				},
				{
					"sampler":74,
					"target":{
						"node":16,
						"path":"scale"
					}
				},
				{
					"sampler":75,
					"target":{
						"node":15,
						"path":"translation"
					}
				},
				{
					"sampler":76,
					"target":{
						"node":15,
						"path":"rotation"
					}
				},
				{
					"sampler":77,
					"target":{
						"node":15,
						"path":"scale"
					}
				},
				{
					"sampler":78,
					"target":{
						"node":27,
						"path":"translation"
					}
				},
				{
					"sampler":79,
					"target":{
						"node":27,
						"path":"rotation"
					}
				},
				{
					"sampler":80,
					"target":{
						"node":27,
						"path":"scale"
					}
				},
				{
					"sampler":81,
					"target":{
						"node":26,
						"path":"translation"
					}
				},
				{
					"sampler":82,
					"target":{
						"node":26,
						"path":"rotation"
					}
				},
				{
					"sampler":83,
					"target":{
						"node":26,
						"path":"scale"
					}
				},
				{
					"sampler":84,
					"target":{
						"node":25,
						"path":"translation"
					}
				},
				{
					"sampler":85,
					"target":{
						"node":25,
						"path":"rotation"
					}
				},
				{
					"sampler":86,
					"target":{
						"node":25,
						"path":"scale"
					}
				},
				{
					"sampler":87,
					"target":{
						"node":24,
						"path":"translation"
					}
				},
				{
					"sampler":88,
					"target":{
						"node":24,
						"path":"rotation"
					}
				},
				{
					"sampler":89,
					"target":{
						"node":24,
						"path":"scale"
					}
				},
				{
					"sampler":90,
					"target":{
						"node":23,
						"path":"translation"
					}
				},
				{
					"sampler":91,
					"target":{
						"node":23,
						"path":"rotation"
					}
				},
				{
					"sampler":92,
					"target":{
						"node":23,
						"path":"scale"
					}
				},
				{
					"sampler":93,
					"target":{
						"node":32,
						"path":"translation"
					}
				},
				{
					"sampler":94,
					"target":{
						"node":32,
						"path":"rotation"
					}
				},
				{
					"sampler":95,
					"target":{
						"node":32,
						"path":"scale"
					}
				},
				{
					"sampler":96,
					"target":{
						"node":31,
						"path":"translation"
					}
				},
				{
					"sampler":97,
					"target":{
						"node":31,
						"path":"rotation"
					}
				},
				{
					"sampler":98,
					"target":{
						"node":31,
						"path":"scale"
					}
				},
				{
					"sampler":99,
					"target":{
						"node":30,
						"path":"translation"
					}
				},
				{
					"sampler":100,
					"target":{
						"node":30,
						"path":"rotation"
					}
				},
				{
					"sampler":101,
					"target":{
						"node":30,
						"path":"scale"
					}
				},
				{
					"sampler":102,
					"target":{
						"node":29,
						"path":"translation"
					}
				},
				{
					"sampler":103,
					"target":{
						"node":29,
						"path":"rotation"
					}
				},
				{
					"sampler":104,
					"target":{
						"node":29,
						"path":"scale"
					}
				},
				{
					"sampler":105,
					"target":{
						"node":28,
						"path":"translation"
					}
				},
				{
					"sampler":106,
					"target":{
						"node":28,
						"path":"rotation"
					}
				},
				{
					"sampler":107,
					"target":{
						"node":28,
						"path":"scale"
					}
				},
				{
					"sampler":108,
					"target":{
						"node":37,
						"path":"translation"
					}
				},
				{
					"sampler":109,
					"target":{
						"node":37,
						"path":"rotation"
					}
				},
				{
					"sampler":110,
					"target":{
						"node":37,
						"path":"scale"
					}
				}
			],
			"name":"rig|rig|idle",
			"samplers":[
				{
					"input":7,
					"interpolation":"STEP",
					"output":8
				},
				{
					"input":7,
					"interpolation":"STEP",
					"output":9
				},
				{
					"input":7,
					"interpolation":"STEP",
					"output":10
				},
				{
					"input":7,
					"interpolation":"STEP",
					"output":11
				},
				{
					"input":12,
					"interpolation":"LINEAR",
					"output":13
				},
				{
					"input":7,
					"interpolation":"STEP",
					"output":14
				},
				{
					"input":7,
					"interpolation":"STEP",
					"output":15
				},
				{
					"input":12,
					"interpolation":"LINEAR",
					"output":16
				},
				{
					"input":7,
					"interpolation":"STEP",
					"output":17
				},
				{
					"input":7,
					"interpolation":"STEP",
					"output":18
				},
				{
					"input":12,
					"interpolation":"LINEAR",
					"output":19
				},
				{
					"input":7,
					"interpolation":"STEP",
					"output":20
				},
				{
					"input":7,
					"interpolation":"STEP",
					"output":21
				},
				{
					"input":12,
					"interpolation":"LINEAR",
					"output":22
				},
				{
					"input":7,
					"interpolation":"STEP",
					"output":23
				},
				{
					"input":7,
					"interpolation":"STEP",
					"output":24
				},
				{
					"input":12,
					"interpolation":"LINEAR",
					"output":25
				},
				{
					"input":7,
					"interpolation":"STEP",
					"output":26
				},
				{
					"input":7,
					"interpolation":"STEP",
					"output":27
				},
				{
					"input":12,
					"interpolation":"LINEAR",
					"output":28
				},
				{
					"input":7,
					"interpolation":"STEP",
					"output":29
				},
				{
					"input":7,
					"interpolation":"STEP",
					"output":30
				},
				{
					"input":12,
					"interpolation":"LINEAR",
					"output":31
				},
				{
					"input":7,
					"interpolation":"STEP",
					"output":32
				},
				{
					"input":7,
					"interpolation":"STEP",
					"output":33
				},
				{
					"input":12,
					"interpolation":"LINEAR",
					"output":34
				},
				{
					"input":7,
					"interpolation":"STEP",
					"output":35
				},
				{
					"input":7,
					"interpolation":"STEP",
					"output":36
				},
				{
					"input":12,
					"interpolation":"LINEAR",
					"output":37
				},
				{
					"input":7,
					"interpolation":"STEP",
					"output":38
				},
				{
					"input":7,
					"interpolation":"STEP",
					"output":39
				},
				{
					"input":12,
					"interpolation":"LINEAR",
					"output":40
				},
				{
					"input":7,
					"interpolation":"STEP",
					"output":41
				},
				{
					"input":7,
					"interpolation":"STEP",
					"output":42
				},
				{
					"input":12,
					"interpolation":"LINEAR",
					"output":43
				},
				{
					"input":7,
					"interpolation":"STEP",
					"output":44
				},
				{
					"input":7,
					"interpolation":"STEP",
					"output":45
				},
				{
					"input":12,
					"interpolation":"LINEAR",
					"output":46
				},
				{
					"input":7,
					"interpolation":"STEP",
					"output":47
				},
				{
					"input":7,
					"interpolation":"STEP",
					"output":48
				},
				{
					"input":12,
					"interpolation":"LINEAR",
					"output":49
				},
				{
					"input":7,
					"interpolation":"STEP",
					"output":50
				},
				{
					"input":7,
					"interpolation":"STEP",
					"output":51
				},
				{
					"input":12,
					"interpolation":"LINEAR",
					"output":52
				},
				{
					"input":7,
					"interpolation":"STEP",
					"output":53
				},
				{
					"input":7,
					"interpolation":"STEP",
					"output":54
				},
				{
					"input":12,
					"interpolation":"LINEAR",
					"output":55
				},
				{
					"input":7,
					"interpolation":"STEP",
					"output":56
				},
				{
					"input":7,
					"interpolation":"STEP",
					"output":57
				},
				{
					"input":12,
					"interpolation":"LINEAR",
					"output":58
				},
				{
					"input":7,
					"interpolation":"STEP",
					"output":59
				},
				{
					"input":7,
					"interpolation":"STEP",
					"output":60
				},
				{
					"input":12,
					"interpolation":"LINEAR",
					"output":61
				},
				{
					"input":7,
					"interpolation":"STEP",
					"output":62
				},
				{
					"input":7,
					"interpolation":"STEP",
					"output":63
				},
				{
					"input":12,
					"interpolation":"LINEAR",
					"output":64
				},
				{
					"input":7,
					"interpolation":"STEP",
					"output":65
				},
				{
					"input":7,
					"interpolation":"STEP",
					"output":66
				},
				{
					"input":12,
					"interpolation":"LINEAR",
					"output":67
				},
				{
					"input":7,
					"interpolation":"STEP",
					"output":68
				},
				{
					"input":7,
					"interpolation":"STEP",
					"output":69
				},
				{
					"input":12,
					"interpolation":"LINEAR",
					"output":70
				},
				{
					"input":7,
					"interpolation":"STEP",
					"output":71
				},
				{
					"input":7,
					"interpolation":"STEP",
					"output":72
				},
				{
					"input":12,
					"interpolation":"LINEAR",
					"output":73
				},
				{
					"input":7,
					"interpolation":"STEP",
					"output":74
				},
				{
					"input":7,
					"interpolation":"STEP",
					"output":75
				},
				{
					"input":12,
					"interpolation":"LINEAR",
					"output":76
				},
				{
					"input":7,
					"interpolation":"STEP",
					"output":77
				},
				{
					"input":7,
					"interpolation":"STEP",
					"output":78
				},
				{
					"input":12,
					"interpolation":"LINEAR",
					"output":79
				},
				{
					"input":7,
					"interpolation":"STEP",
					"output":80
				},
				{
					"input":7,
					"interpolation":"STEP",
					"output":81
				},
				{
					"input":12,
					"interpolation":"LINEAR",
					"output":82
				},
				{
					"input":7,
					"interpolation":"STEP",
					"output":83
				},
				{
					"input":7,
					"interpolation":"STEP",
					"output":84
				},
				{
					"input":12,
					"interpolation":"LINEAR",
					"output":85
				},
				{
					"input":7,
					"interpolation":"STEP",
					"output":86
				},
				{
					"input":7,
					"interpolation":"STEP",
					"output":87
				},
				{
					"input":12,
					"interpolation":"LINEAR",
					"output":88
				},
				{
					"input":7,
					"interpolation":"STEP",
					"output":89
				},
				{
					"input":7,
					"interpolation":"STEP",
					"output":90
				},
				{
					"input":12,
					"interpolation":"LINEAR",
					"output":91
				},
				{
					"input":7,
					"interpolation":"STEP",
					"output":92
				},
				{
					"input":7,
					"interpolation":"STEP",
					"output":93
				},
				{
					"input":12,
					"interpolation":"LINEAR",
					"output":94
				},
				{
					"input":7,
					"interpolation":"STEP",
					"output":95
				},
				{
					"input":7,
					"interpolation":"STEP",
					"output":96
				},
				{
					"input":12,
					"interpolation":"LINEAR",
					"output":97
				},
				{
					"input":7,
					"interpolation":"STEP",
					"output":98
				},
				{
					"input":7,
					"interpolation":"STEP",
					"output":99
				},
				{
					"input":12,
					"interpolation":"LINEAR",
					"output":100
				},
				{
					"input":7,
					"interpolation":"STEP",
					"output":101
				},
				{
					"input":7,
					"interpolation":"STEP",
					"output":102
				},
				{
					"input":12,
					"interpolation":"LINEAR",
					"output":103
				},
				{
					"input":7,
					"interpolation":"STEP",
					"output":104
				},
				{
					"input":7,
					"interpolation":"STEP",
					"output":105
				},
				{
					"input":12,
					"interpolation":"LINEAR",
					"output":106
				},
				{
					"input":7,
					"interpolation":"STEP",
					"output":107
				},
				{
					"input":7,
					"interpolation":"STEP",
					"output":108
				},
				{
					"input":12,
					"interpolation":"LINEAR",
					"output":109
				},
				{
					"input":7,
					"interpolation":"STEP",
					"output":110
				},
				{
					"input":7,
					"interpolation":"STEP",
					"output":111
				},
				{
					"input":12,
					"interpolation":"LINEAR",
					"output":112
				},
				{
					"input":7,
					"interpolation":"STEP",
					"output":113
				},
				{
					"input":7,
					"interpolation":"STEP",
					"output":114
				},
				{
					"input":12,
					"interpolation":"LINEAR",
					"output":115
				},
				{
					"input":7,
					"interpolation":"STEP",
					"output":116
				},
				{
					"input":7,
					"interpolation":"STEP",
					"output":117
				},
				{
					"input":7,
					"interpolation":"STEP",
					"output":118
				},
				{
					"input":7,
					"interpolation":"STEP",
					"output":119
				}
			]
		}
	],
	"materials":[
		{
			"doubleSided":true,
			"name":"tripo_material_247788eb-1c15-4112-b449-a94de3627ff9.001",
			"normalTexture":{
				"index":0
			},
			"pbrMetallicRoughness":{
				"baseColorTexture":{
					"index":1
				},
				"metallicFactor":0,
				"roughnessFactor":0.5
			}
		}
	],
	"meshes":[
		{
			"name":"model",
			"primitives":[
				{
					"attributes":{
						"POSITION":0,
						"NORMAL":1,
						"TEXCOORD_0":2,
						"JOINTS_0":3,
						"WEIGHTS_0":4
					},
					"indices":5,
					"material":0
				}
			]
		}
	],
	"textures":[
		{
			"sampler":0,
			"source":0
		},
		{
			"sampler":0,
			"source":1
		}
	],
	"images":[
		{
			"mimeType":"image/jpeg",
			"name":"NormalGL_247788eb-1c15-4112-b449-a94de3627ff9",
			"uri":"NormalGL_247788eb-1c15-4112-b449-a94de3627ff9.jpg"
		},
		{
			"mimeType":"image/jpeg",
			"name":"Color_247788eb-1c15-4112-b449-a94de3627ff9",
			"uri":"Color_247788eb-1c15-4112-b449-a94de3627ff9.jpg"
		}
	],
	"skins":[
		{
			"inverseBindMatrices":6,
			"joints":[
				35,
				34,
				14,
				13,
				4,
				3,
				2,
				1,
				0,
				7,
				6,
				5,
				12,
				11,
				10,
				9,
				8,
				33,
				22,
				21,
				20,
				19,
				18,
				17,
				16,
				15,
				27,
				26,
				25,
				24,
				23,
				32,
				31,
				30,
				29,
				28
			],
			"name":"rig"
		}
	],
	"accessors":[
		{
			"bufferView":0,
			"componentType":5126,
			"count":12227,
			"max":[
				20.955965042114258,
				33.1711540222168,
				31.304656982421875
			],
			"min":[
				-18.758758544921875,
				-33.70673751831055,
				-31.669584274291992
			],
			"type":"VEC3"
		},
		{
			"bufferView":1,
			"componentType":5126,
			"count":12227,
			"type":"VEC3"
		},
		{
			"bufferView":2,
			"componentType":5126,
			"count":12227,
			"type":"VEC2"
		},
		{
			"bufferView":3,
			"componentType":5121,
			"count":12227,
			"type":"VEC4"
		},
		{
			"bufferView":4,
			"componentType":5126,
			"count":12227,
			"type":"VEC4"
		},
		{
			"bufferView":5,
			"componentType":5123,
			"count":59538,
			"type":"SCALAR"
		},
		{
			"bufferView":6,
			"componentType":5126,
			"count":36,
			"type":"MAT4"
		},
		{
			"bufferView":7,
			"componentType":5126,
			"count":2,
			"max":[
				4.033333333333333
			],
			"min":[
				0.03333333333333333
			],
			"type":"SCALAR"
		},
		{
			"bufferView":8,
			"componentType":5126,
			"count":2,
			"type":"VEC3"
		},
		{
			"bufferView":9,
			"componentType":5126,
			"count":2,
			"type":"VEC4"
		},
		{
			"bufferView":10,
			"componentType":5126,
			"count":2,
			"type":"VEC3"
		},
		{
			"bufferView":11,
			"componentType":5126,
			"count":2,
			"type":"VEC3"
		},
		{
			"bufferView":12,
			"componentType":5126,
			"count":121,
			"max":[
				4.033333333333333
			],
			"min":[
				0.03333333333333333
			],
			"type":"SCALAR"
		},
		{
			"bufferView":13,
			"componentType":5126,
			"count":121,
			"type":"VEC4"
		},
		{
			"bufferView":14,
			"componentType":5126,
			"count":2,
			"type":"VEC3"
		},
		{
			"bufferView":15,
			"componentType":5126,
			"count":2,
			"type":"VEC3"
		},
		{
			"bufferView":16,
			"componentType":5126,
			"count":121,
			"type":"VEC4"
		},
		{
			"bufferView":17,
			"componentType":5126,
			"count":2,
			"type":"VEC3"
		},
		{
			"bufferView":18,
			"componentType":5126,
			"count":2,
			"type":"VEC3"
		},
		{
			"bufferView":19,
			"componentType":5126,
			"count":121,
			"type":"VEC4"
		},
		{
			"bufferView":20,
			"componentType":5126,
			"count":2,
			"type":"VEC3"
		},
		{
			"bufferView":21,
			"componentType":5126,
			"count":2,
			"type":"VEC3"
		},
		{
			"bufferView":22,
			"componentType":5126,
			"count":121,
			"type":"VEC4"
		},
		{
			"bufferView":23,
			"componentType":5126,
			"count":2,
			"type":"VEC3"
		},
		{
			"bufferView":24,
			"componentType":5126,
			"count":2,
			"type":"VEC3"
		},
		{
			"bufferView":25,
			"componentType":5126,
			"count":121,
			"type":"VEC4"
		},
		{
			"bufferView":26,
			"componentType":5126,
			"count":2,
			"type":"VEC3"
		},
		{
			"bufferView":27,
			"componentType":5126,
			"count":2,
			"type":"VEC3"
		},
		{
			"bufferView":28,
			"componentType":5126,
			"count":121,
			"type":"VEC4"
		},
		{
			"bufferView":29,
			"componentType":5126,
			"count":2,
			"type":"VEC3"
		},
		{
			"bufferView":30,
			"componentType":5126,
			"count":2,
			"type":"VEC3"
		},
		{
			"bufferView":31,
			"componentType":5126,
			"count":121,
			"type":"VEC4"
		},
		{
			"bufferView":32,
			"componentType":5126,
			"count":2,
			"type":"VEC3"
		},
		{
			"bufferView":33,
			"componentType":5126,
			"count":2,
			"type":"VEC3"
		},
		{
			"bufferView":34,
			"componentType":5126,
			"count":121,
			"type":"VEC4"
		},
		{
			"bufferView":35,
			"componentType":5126,
			"count":2,
			"type":"VEC3"
		},
		{
			"bufferView":36,
			"componentType":5126,
			"count":2,
			"type":"VEC3"
		},
		{
			"bufferView":37,
			"componentType":5126,
			"count":121,
			"type":"VEC4"
		},
		{
			"bufferView":38,
			"componentType":5126,
			"count":2,
			"type":"VEC3"
		},
		{
			"bufferView":39,
			"componentType":5126,
			"count":2,
			"type":"VEC3"
		},
		{
			"bufferView":40,
			"componentType":5126,
			"count":121,
			"type":"VEC4"
		},
		{
			"bufferView":41,
			"componentType":5126,
			"count":2,
			"type":"VEC3"
		},
		{
			"bufferView":42,
			"componentType":5126,
			"count":2,
			"type":"VEC3"
		},
		{
			"bufferView":43,
			"componentType":5126,
			"count":121,
			"type":"VEC4"
		},
		{
			"bufferView":44,
			"componentType":5126,
			"count":2,
			"type":"VEC3"
		},
		{
			"bufferView":45,
			"componentType":5126,
			"count":2,
			"type":"VEC3"
		},
		{
			"bufferView":46,
			"componentType":5126,
			"count":121,
			"type":"VEC4"
		},
		{
			"bufferView":47,
			"componentType":5126,
			"count":2,
			"type":"VEC3"
		},
		{
			"bufferView":48,
			"componentType":5126,
			"count":2,
			"type":"VEC3"
		},
		{
			"bufferView":49,
			"componentType":5126,
			"count":121,
			"type":"VEC4"
		},
		{
			"bufferView":50,
			"componentType":5126,
			"count":2,
			"type":"VEC3"
		},
		{
			"bufferView":51,
			"componentType":5126,
			"count":2,
			"type":"VEC3"
		},
		{
			"bufferView":52,
			"componentType":5126,
			"count":121,
			"type":"VEC4"
		},
		{
			"bufferView":53,
			"componentType":5126,
			"count":2,
			"type":"VEC3"
		},
		{
			"bufferView":54,
			"componentType":5126,
			"count":2,
			"type":"VEC3"
		},
		{
			"bufferView":55,
			"componentType":5126,
			"count":121,
			"type":"VEC4"
		},
		{
			"bufferView":56,
			"componentType":5126,
			"count":2,
			"type":"VEC3"
		},
		{
			"bufferView":57,
			"componentType":5126,
			"count":2,
			"type":"VEC3"
		},
		{
			"bufferView":58,
			"componentType":5126,
			"count":121,
			"type":"VEC4"
		},
		{
			"bufferView":59,
			"componentType":5126,
			"count":2,
			"type":"VEC3"
		},
		{
			"bufferView":60,
			"componentType":5126,
			"count":2,
			"type":"VEC3"
		},
		{
			"bufferView":61,
			"componentType":5126,
			"count":121,
			"type":"VEC4"
		},
		{
			"bufferView":62,
			"componentType":5126,
			"count":2,
			"type":"VEC3"
		},
		{
			"bufferView":63,
			"componentType":5126,
			"count":2,
			"type":"VEC3"
		},
		{
			"bufferView":64,
			"componentType":5126,
			"count":121,
			"type":"VEC4"
		},
		{
			"bufferView":65,
			"componentType":5126,
			"count":2,
			"type":"VEC3"
		},
		{
			"bufferView":66,
			"componentType":5126,
			"count":2,
			"type":"VEC3"
		},
		{
			"bufferView":67,
			"componentType":5126,
			"count":121,
			"type":"VEC4"
		},
		{
			"bufferView":68,
			"componentType":5126,
			"count":2,
			"type":"VEC3"
		},
		{
			"bufferView":69,
			"componentType":5126,
			"count":2,
			"type":"VEC3"
		},
		{
			"bufferView":70,
			"componentType":5126,
			"count":121,
			"type":"VEC4"
		},
		{
			"bufferView":71,
			"componentType":5126,
			"count":2,
			"type":"VEC3"
		},
		{
			"bufferView":72,
			"componentType":5126,
			"count":2,
			"type":"VEC3"
		},
		{
			"bufferView":73,
			"componentType":5126,
			"count":121,
			"type":"VEC4"
		},
		{
			"bufferView":74,
			"componentType":5126,
			"count":2,
			"type":"VEC3"
		},
		{
			"bufferView":75,
			"componentType":5126,
			"count":2,
			"type":"VEC3"
		},
		{
			"bufferView":76,
			"componentType":5126,
			"count":121,
			"type":"VEC4"
		},
		{
			"bufferView":77,
			"componentType":5126,
			"count":2,
			"type":"VEC3"
		},
		{
			"bufferView":78,
			"componentType":5126,
			"count":2,
			"type":"VEC3"
		},
		{
			"bufferView":79,
			"componentType":5126,
			"count":121,
			"type":"VEC4"
		},
		{
			"bufferView":80,
			"componentType":5126,
			"count":2,
			"type":"VEC3"
		},
		{
			"bufferView":81,
			"componentType":5126,
			"count":2,
			"type":"VEC3"
		},
		{
			"bufferView":82,
			"componentType":5126,
			"count":121,
			"type":"VEC4"
		},
		{
			"bufferView":83,
			"componentType":5126,
			"count":2,
			"type":"VEC3"
		},
		{
			"bufferView":84,
			"componentType":5126,
			"count":2,
			"type":"VEC3"
		},
		{
			"bufferView":85,
			"componentType":5126,
			"count":121,
			"type":"VEC4"
		},
		{
			"bufferView":86,
			"componentType":5126,
			"count":2,
			"type":"VEC3"
		},
		{
			"bufferView":87,
			"componentType":5126,
			"count":2,
			"type":"VEC3"
		},
		{
			"bufferView":88,
			"componentType":5126,
			"count":121,
			"type":"VEC4"
		},
		{
			"bufferView":89,
			"componentType":5126,
			"count":2,
			"type":"VEC3"
		},
		{
			"bufferView":90,
			"componentType":5126,
			"count":2,
			"type":"VEC3"
		},
		{
			"bufferView":91,
			"componentType":5126,
			"count":121,
			"type":"VEC4"
		},
		{
			"bufferView":92,
			"componentType":5126,
			"count":2,
			"type":"VEC3"
		},
		{
			"bufferView":93,
			"componentType":5126,
			"count":2,
			"type":"VEC3"
		},
		{
			"bufferView":94,
			"componentType":5126,
			"count":121,
			"type":"VEC4"
		},
		{
			"bufferView":95,
			"componentType":5126,
			"count":2,
			"type":"VEC3"
		},
		{
			"bufferView":96,
			"componentType":5126,
			"count":2,
			"type":"VEC3"
		},
		{
			"bufferView":97,
			"componentType":5126,
			"count":121,
			"type":"VEC4"
		},
		{
			"bufferView":98,
			"componentType":5126,
			"count":2,
			"type":"VEC3"
		},
		{
			"bufferView":99,
			"componentType":5126,
			"count":2,
			"type":"VEC3"
		},
		{
			"bufferView":100,
			"componentType":5126,
			"count":121,
			"type":"VEC4"
		},
		{
			"bufferView":101,
			"componentType":5126,
			"count":2,
			"type":"VEC3"
		},
		{
			"bufferView":102,
			"componentType":5126,
			"count":2,
			"type":"VEC3"
		},
		{
			"bufferView":103,
			"componentType":5126,
			"count":121,
			"type":"VEC4"
		},
		{
			"bufferView":104,
			"componentType":5126,
			"count":2,
			"type":"VEC3"
		},
		{
			"bufferView":105,
			"componentType":5126,
			"count":2,
			"type":"VEC3"
		},
		{
			"bufferView":106,
			"componentType":5126,
			"count":121,
			"type":"VEC4"
		},
		{
			"bufferView":107,
			"componentType":5126,
			"count":2,
			"type":"VEC3"
		},
		{
			"bufferView":108,
			"componentType":5126,
			"count":2,
			"type":"VEC3"
		},
		{
			"bufferView":109,
			"componentType":5126,
			"count":121,
			"type":"VEC4"
		},
		{
			"bufferView":110,
			"componentType":5126,
			"count":2,
			"type":"VEC3"
		},
		{
			"bufferView":111,
			"componentType":5126,
			"count":2,
			"type":"VEC3"
		},
		{
			"bufferView":112,
			"componentType":5126,
			"count":121,
			"type":"VEC4"
		},
		{
			"bufferView":113,
			"componentType":5126,
			"count":2,
			"type":"VEC3"
		},
		{
			"bufferView":114,
			"componentType":5126,
			"count":2,
			"type":"VEC3"
		},
		{
			"bufferView":115,
			"componentType":5126,
			"count":121,
			"type":"VEC4"
		},
		{
			"bufferView":116,
			"componentType":5126,
			"count":2,
			"type":"VEC3"
		},
		{
			"bufferView":117,
			"componentType":5126,
			"count":2,
			"type":"VEC3"
		},
		{
			"bufferView":118,
			"componentType":5126,
			"count":2,
			"type":"VEC4"
		},
		{
			"bufferView":119,
			"componentType":5126,
			"count":2,
			"type":"VEC3"
		}
	],
	"bufferViews":[
		{
			"buffer":0,
			"byteLength":146724,
			"byteOffset":0,
			"target":34962
		},
		{
			"buffer":0,
			"byteLength":146724,
			"byteOffset":146724,
			"target":34962
		},
		{
			"buffer":0,
			"byteLength":97816,
			"byteOffset":293448,
			"target":34962
		},
		{
			"buffer":0,
			"byteLength":48908,
			"byteOffset":391264,
			"target":34962
		},
		{
			"buffer":0,
			"byteLength":195632,
			"byteOffset":440172,
			"target":34962
		},
		{
			"buffer":0,
			"byteLength":119076,
			"byteOffset":635804,
			"target":34963
		},
		{
			"buffer":0,
			"byteLength":2304,
			"byteOffset":754880
		},
		{
			"buffer":0,
			"byteLength":8,
			"byteOffset":757184
		},
		{
			"buffer":0,
			"byteLength":24,
			"byteOffset":757192
		},
		{
			"buffer":0,
			"byteLength":32,
			"byteOffset":757216
		},
		{
			"buffer":0,
			"byteLength":24,
			"byteOffset":757248
		},
		{
			"buffer":0,
			"byteLength":24,
			"byteOffset":757272
		},
		{
			"buffer":0,
			"byteLength":484,
			"byteOffset":757296
		},
		{
			"buffer":0,
			"byteLength":1936,
			"byteOffset":757780
		},
		{
			"buffer":0,
			"byteLength":24,
			"byteOffset":759716
		},
		{
			"buffer":0,
			"byteLength":24,
			"byteOffset":759740
		},
		{
			"buffer":0,
			"byteLength":1936,
			"byteOffset":759764
		},
		{
			"buffer":0,
			"byteLength":24,
			"byteOffset":761700
		},
		{
			"buffer":0,
			"byteLength":24,
			"byteOffset":761724
		},
		{
			"buffer":0,
			"byteLength":1936,
			"byteOffset":761748
		},
		{
			"buffer":0,
			"byteLength":24,
			"byteOffset":763684
		},
		{
			"buffer":0,
			"byteLength":24,
			"byteOffset":763708
		},
		{
			"buffer":0,
			"byteLength":1936,
			"byteOffset":763732
		},
		{
			"buffer":0,
			"byteLength":24,
			"byteOffset":765668
		},
		{
			"buffer":0,
			"byteLength":24,
			"byteOffset":765692
		},
		{
			"buffer":0,
			"byteLength":1936,
			"byteOffset":765716
		},
		{
			"buffer":0,
			"byteLength":24,
			"byteOffset":767652
		},
		{
			"buffer":0,
			"byteLength":24,
			"byteOffset":767676
		},
		{
			"buffer":0,
			"byteLength":1936,
			"byteOffset":767700
		},
		{
			"buffer":0,
			"byteLength":24,
			"byteOffset":769636
		},
		{
			"buffer":0,
			"byteLength":24,
			"byteOffset":769660
		},
		{
			"buffer":0,
			"byteLength":1936,
			"byteOffset":769684
		},
		{
			"buffer":0,
			"byteLength":24,
			"byteOffset":771620
		},
		{
			"buffer":0,
			"byteLength":24,
			"byteOffset":771644
		},
		{
			"buffer":0,
			"byteLength":1936,
			"byteOffset":771668
		},
		{
			"buffer":0,
			"byteLength":24,
			"byteOffset":773604
		},
		{
			"buffer":0,
			"byteLength":24,
			"byteOffset":773628
		},
		{
			"buffer":0,
			"byteLength":1936,
			"byteOffset":773652
		},
		{
			"buffer":0,
			"byteLength":24,
			"byteOffset":775588
		},
		{
			"buffer":0,
			"byteLength":24,
			"byteOffset":775612
		},
		{
			"buffer":0,
			"byteLength":1936,
			"byteOffset":775636
		},
		{
			"buffer":0,
			"byteLength":24,
			"byteOffset":777572
		},
		{
			"buffer":0,
			"byteLength":24,
			"byteOffset":777596
		},
		{
			"buffer":0,
			"byteLength":1936,
			"byteOffset":777620
		},
		{
			"buffer":0,
			"byteLength":24,
			"byteOffset":779556
		},
		{
			"buffer":0,
			"byteLength":24,
			"byteOffset":779580
		},
		{
			"buffer":0,
			"byteLength":1936,
			"byteOffset":779604
		},
		{
			"buffer":0,
			"byteLength":24,
			"byteOffset":781540
		},
		{
			"buffer":0,
			"byteLength":24,
			"byteOffset":781564
		},
		{
			"buffer":0,
			"byteLength":1936,
			"byteOffset":781588
		},
		{
			"buffer":0,
			"byteLength":24,
			"byteOffset":783524
		},
		{
			"buffer":0,
			"byteLength":24,
			"byteOffset":783548
		},
		{
			"buffer":0,
			"byteLength":1936,
			"byteOffset":783572
		},
		{
			"buffer":0,
			"byteLength":24,
			"byteOffset":785508
		},
		{
			"buffer":0,
			"byteLength":24,
			"byteOffset":785532
		},
		{
			"buffer":0,
			"byteLength":1936,
			"byteOffset":785556
		},
		{
			"buffer":0,
			"byteLength":24,
			"byteOffset":787492
		},
		{
			"buffer":0,
			"byteLength":24,
			"byteOffset":787516
		},
		{
			"buffer":0,
			"byteLength":1936,
			"byteOffset":787540
		},
		{
			"buffer":0,
			"byteLength":24,
			"byteOffset":789476
		},
		{
			"buffer":0,
			"byteLength":24,
			"byteOffset":789500
		},
		{
			"buffer":0,
			"byteLength":1936,
			"byteOffset":789524
		},
		{
			"buffer":0,
			"byteLength":24,
			"byteOffset":791460
		},
		{
			"buffer":0,
			"byteLength":24,
			"byteOffset":791484
		},
		{
			"buffer":0,
			"byteLength":1936,
			"byteOffset":791508
		},
		{
			"buffer":0,
			"byteLength":24,
			"byteOffset":793444
		},
		{
			"buffer":0,
			"byteLength":24,
			"byteOffset":793468
		},
		{
			"buffer":0,
			"byteLength":1936,
			"byteOffset":793492
		},
		{
			"buffer":0,
			"byteLength":24,
			"byteOffset":795428
		},
		{
			"buffer":0,
			"byteLength":24,
			"byteOffset":795452
		},
		{
			"buffer":0,
			"byteLength":1936,
			"byteOffset":795476
		},
		{
			"buffer":0,
			"byteLength":24,
			"byteOffset":797412
		},
		{
			"buffer":0,
			"byteLength":24,
			"byteOffset":797436
		},
		{
			"buffer":0,
			"byteLength":1936,
			"byteOffset":797460
		},
		{
			"buffer":0,
			"byteLength":24,
			"byteOffset":799396
		},
		{
			"buffer":0,
			"byteLength":24,
			"byteOffset":799420
		},
		{
			"buffer":0,
			"byteLength":1936,
			"byteOffset":799444
		},
		{
			"buffer":0,
			"byteLength":24,
			"byteOffset":801380
		},
		{
			"buffer":0,
			"byteLength":24,
			"byteOffset":801404
		},
		{
			"buffer":0,
			"byteLength":1936,
			"byteOffset":801428
		},
		{
			"buffer":0,
			"byteLength":24,
			"byteOffset":803364
		},
		{
			"buffer":0,
			"byteLength":24,
			"byteOffset":803388
		},
		{
			"buffer":0,
			"byteLength":1936,
			"byteOffset":803412
		},
		{
			"buffer":0,
			"byteLength":24,
			"byteOffset":805348
		},
		{
			"buffer":0,
			"byteLength":24,
			"byteOffset":805372
		},
		{
			"buffer":0,
			"byteLength":1936,
			"byteOffset":805396
		},
		{
			"buffer":0,
			"byteLength":24,
			"byteOffset":807332
		},
		{
			"buffer":0,
			"byteLength":24,
			"byteOffset":807356
		},
		{
			"buffer":0,
			"byteLength":1936,
			"byteOffset":807380
		},
		{
			"buffer":0,
			"byteLength":24,
			"byteOffset":809316
		},
		{
			"buffer":0,
			"byteLength":24,
			"byteOffset":809340
		},
		{
			"buffer":0,
			"byteLength":1936,
			"byteOffset":809364
		},
		{
			"buffer":0,
			"byteLength":24,
			"byteOffset":811300
		},
		{
			"buffer":0,
			"byteLength":24,
			"byteOffset":811324
		},
		{
			"buffer":0,
			"byteLength":1936,
			"byteOffset":811348
		},
		{
			"buffer":0,
			"byteLength":24,
			"byteOffset":813284
		},
		{
			"buffer":0,
			"byteLength":24,
			"byteOffset":813308
		},
		{
			"buffer":0,
			"byteLength":1936,
			"byteOffset":813332
		},
		{
			"buffer":0,
			"byteLength":24,
			"byteOffset":815268
		},
		{
			"buffer":0,
			"byteLength":24,
			"byteOffset":815292
		},
		{
			"buffer":0,
			"byteLength":1936,
			"byteOffset":815316
		},
		{
			"buffer":0,
			"byteLength":24,
			"byteOffset":817252
		},
		{
			"buffer":0,
			"byteLength":24,
			"byteOffset":817276
		},
		{
			"buffer":0,
			"byteLength":1936,
			"byteOffset":817300
		},
		{
			"buffer":0,
			"byteLength":24,
			"byteOffset":819236
		},
		{
			"buffer":0,
			"byteLength":24,
			"byteOffset":819260
		},
		{
			"buffer":0,
			"byteLength":1936,
			"byteOffset":819284
		},
		{
			"buffer":0,
			"byteLength":24,
			"byteOffset":821220
		},
		{
			"buffer":0,
			"byteLength":24,
			"byteOffset":821244
		},
		{
			"buffer":0,
			"byteLength":1936,
			"byteOffset":821268
		},
		{
			"buffer":0,
			"byteLength":24,
			"byteOffset":823204
		},
		{
			"buffer":0,
			"byteLength":24,
			"byteOffset":823228
		},
		{
			"buffer":0,
			"byteLength":1936,
			"byteOffset":823252
		},
		{
			"buffer":0,
			"byteLength":24,
			"byteOffset":825188
		},
		{
			"buffer":0,
			"byteLength":24,
			"byteOffset":825212
		},
		{
			"buffer":0,
			"byteLength":1936,
			"byteOffset":825236
		},
		{
			"buffer":0,
			"byteLength":24,
			"byteOffset":827172
		},
		{
			"buffer":0,
			"byteLength":24,
			"byteOffset":827196
		},
		{
			"buffer":0,
			"byteLength":32,
			"byteOffset":827220
		},
		{
			"buffer":0,
			"byteLength":24,
			"byteOffset":827252
		}
	],
	"samplers":[
		{
			"magFilter":9729,
			"minFilter":9987
		}
	],
	"buffers":[
		{
			"byteLength":827276,
			"uri":"model_idle.bin"
		}
	]
}
